# xmcd
#
# Track frame offsets: 
#        150
#        15448
#        42933
#
# Disc length: 1021 seconds
#
# Revision: 0
# Processed by: cddbd v1.5.1PL0 Copyright (c) Steve Scherf et al.
# Submitted via: ExactAudioCopy v0.95a5
#
DISCID=1703fb03
DTITLE=Supercharger - Widemouth
DYEAR=1999
DGENRE=Electronica
TTITLE0=Widemouth (Radio Mix)
TTITLE1=Dead Presidents (Club Mix)
TTITLE2=Widemouth (Dub Pistols Mix)
EXTD=
EXTT0=
EXTT1=
EXTT2=
PLAYORDER=
